<mxfile host="app.diagrams.net" modified="2023-04-06T12:25:16.182Z" agent="Mozilla/5.0 (Macintosh; Intel Mac OS X 10_15_7) AppleWebKit/537.36 (KHTML, like Gecko) Chrome/110.0.0.0 Safari/537.36" etag="LUN4Xhorge5vk6HmFmyo" version="21.1.0" type="device">
  <diagram id="C5RBs43oDa-KdzZeNtuy" name="Page-1">
    <mxGraphModel dx="1578" dy="886" grid="1" gridSize="10" guides="1" tooltips="1" connect="1" arrows="1" fold="1" page="1" pageScale="1" pageWidth="827" pageHeight="1169" math="0" shadow="0">
      <root>
        <mxCell id="WIyWlLk6GJQsqaUBKTNV-0" />
        <mxCell id="WIyWlLk6GJQsqaUBKTNV-1" parent="WIyWlLk6GJQsqaUBKTNV-0" />
        <mxCell id="e51Ie-1vtM1IQulRm8Je-21" value="Scheduler" style="swimlane;fontStyle=0;childLayout=stackLayout;horizontal=1;startSize=30;horizontalStack=0;resizeParent=1;resizeParentMax=0;resizeLast=0;collapsible=1;marginBottom=0;whiteSpace=wrap;html=1;" vertex="1" parent="WIyWlLk6GJQsqaUBKTNV-1">
          <mxGeometry x="590" y="70" width="140" height="60" as="geometry" />
        </mxCell>
        <mxCell id="e51Ie-1vtM1IQulRm8Je-22" value="GCP Cloud Scheduler" style="text;strokeColor=none;fillColor=none;align=left;verticalAlign=middle;spacingLeft=4;spacingRight=4;overflow=hidden;points=[[0,0.5],[1,0.5]];portConstraint=eastwest;rotatable=0;whiteSpace=wrap;html=1;" vertex="1" parent="e51Ie-1vtM1IQulRm8Je-21">
          <mxGeometry y="30" width="140" height="30" as="geometry" />
        </mxCell>
        <mxCell id="e51Ie-1vtM1IQulRm8Je-26" value="Every 5 min" style="curved=1;endArrow=classic;html=1;rounded=0;entryX=0.5;entryY=0;entryDx=0;entryDy=0;exitX=-0.014;exitY=0.25;exitDx=0;exitDy=0;exitPerimeter=0;" edge="1" parent="WIyWlLk6GJQsqaUBKTNV-1" source="e51Ie-1vtM1IQulRm8Je-22" target="e51Ie-1vtM1IQulRm8Je-12">
          <mxGeometry x="0.278" y="33" width="50" height="50" relative="1" as="geometry">
            <mxPoint x="150" y="210" as="sourcePoint" />
            <mxPoint x="200" y="160" as="targetPoint" />
            <Array as="points">
              <mxPoint x="200" y="140" />
            </Array>
            <mxPoint as="offset" />
          </mxGeometry>
        </mxCell>
        <mxCell id="e51Ie-1vtM1IQulRm8Je-29" value="" style="shape=flexArrow;endArrow=classic;html=1;rounded=0;exitX=1;exitY=0.5;exitDx=0;exitDy=0;" edge="1" parent="WIyWlLk6GJQsqaUBKTNV-1" source="e51Ie-1vtM1IQulRm8Je-14" target="e51Ie-1vtM1IQulRm8Je-28">
          <mxGeometry width="50" height="50" relative="1" as="geometry">
            <mxPoint x="260" y="370" as="sourcePoint" />
            <mxPoint x="680" y="340" as="targetPoint" />
          </mxGeometry>
        </mxCell>
        <mxCell id="e51Ie-1vtM1IQulRm8Je-30" value="Data Loader" style="swimlane;fontStyle=0;childLayout=stackLayout;horizontal=1;startSize=30;horizontalStack=0;resizeParent=1;resizeParentMax=0;resizeLast=0;collapsible=1;marginBottom=0;whiteSpace=wrap;html=1;" vertex="1" parent="WIyWlLk6GJQsqaUBKTNV-1">
          <mxGeometry x="970" y="150" width="140" height="90" as="geometry" />
        </mxCell>
        <mxCell id="e51Ie-1vtM1IQulRm8Je-31" value="GCP Cloud Function" style="text;strokeColor=none;fillColor=none;align=left;verticalAlign=middle;spacingLeft=4;spacingRight=4;overflow=hidden;points=[[0,0.5],[1,0.5]];portConstraint=eastwest;rotatable=0;whiteSpace=wrap;html=1;" vertex="1" parent="e51Ie-1vtM1IQulRm8Je-30">
          <mxGeometry y="30" width="140" height="30" as="geometry" />
        </mxCell>
        <mxCell id="e51Ie-1vtM1IQulRm8Je-32" value="Python" style="text;strokeColor=none;fillColor=none;align=left;verticalAlign=middle;spacingLeft=4;spacingRight=4;overflow=hidden;points=[[0,0.5],[1,0.5]];portConstraint=eastwest;rotatable=0;whiteSpace=wrap;html=1;" vertex="1" parent="e51Ie-1vtM1IQulRm8Je-30">
          <mxGeometry y="60" width="140" height="30" as="geometry" />
        </mxCell>
        <mxCell id="e51Ie-1vtM1IQulRm8Je-38" value="1. Import from Cloud Storage&lt;br&gt;2. SQL Transform and create high level data" style="curved=1;endArrow=classic;html=1;rounded=0;exitX=0;exitY=0.5;exitDx=0;exitDy=0;entryX=0.5;entryY=0;entryDx=0;entryDy=0;entryPerimeter=0;" edge="1" parent="WIyWlLk6GJQsqaUBKTNV-1" source="e51Ie-1vtM1IQulRm8Je-31" target="e51Ie-1vtM1IQulRm8Je-34">
          <mxGeometry x="0.5478" y="-30" width="50" height="50" relative="1" as="geometry">
            <mxPoint x="810" y="350" as="sourcePoint" />
            <mxPoint x="860" y="300" as="targetPoint" />
            <Array as="points">
              <mxPoint x="750" y="210" />
            </Array>
            <mxPoint as="offset" />
          </mxGeometry>
        </mxCell>
        <mxCell id="e51Ie-1vtM1IQulRm8Je-39" value="Every day" style="curved=1;endArrow=classic;html=1;rounded=0;entryX=0.5;entryY=0;entryDx=0;entryDy=0;exitX=1.021;exitY=-0.017;exitDx=0;exitDy=0;exitPerimeter=0;" edge="1" parent="WIyWlLk6GJQsqaUBKTNV-1" source="e51Ie-1vtM1IQulRm8Je-22" target="e51Ie-1vtM1IQulRm8Je-30">
          <mxGeometry x="0.0808" y="-14" width="50" height="50" relative="1" as="geometry">
            <mxPoint x="628" y="150" as="sourcePoint" />
            <mxPoint x="450" y="331" as="targetPoint" />
            <Array as="points">
              <mxPoint x="930" y="99" />
            </Array>
            <mxPoint as="offset" />
          </mxGeometry>
        </mxCell>
        <mxCell id="e51Ie-1vtM1IQulRm8Je-41" value="3. Send daily report" style="curved=1;endArrow=classic;html=1;rounded=0;exitX=0.547;exitY=0.954;exitDx=0;exitDy=0;entryX=0;entryY=0;entryDx=0;entryDy=38.75;entryPerimeter=0;exitPerimeter=0;" edge="1" parent="WIyWlLk6GJQsqaUBKTNV-1" source="e51Ie-1vtM1IQulRm8Je-32" target="e51Ie-1vtM1IQulRm8Je-40">
          <mxGeometry x="-0.5214" y="7" width="50" height="50" relative="1" as="geometry">
            <mxPoint x="800" y="197" as="sourcePoint" />
            <mxPoint x="983" y="270" as="targetPoint" />
            <Array as="points">
              <mxPoint x="1020" y="379" />
            </Array>
            <mxPoint x="-1" y="-1" as="offset" />
          </mxGeometry>
        </mxCell>
        <mxCell id="e51Ie-1vtM1IQulRm8Je-42" value="" style="shape=flexArrow;endArrow=classic;html=1;rounded=0;entryX=0;entryY=0.5;entryDx=0;entryDy=0;entryPerimeter=0;exitX=1;exitY=0.5;exitDx=0;exitDy=0;exitPerimeter=0;" edge="1" parent="WIyWlLk6GJQsqaUBKTNV-1" source="e51Ie-1vtM1IQulRm8Je-34" target="e51Ie-1vtM1IQulRm8Je-40">
          <mxGeometry width="50" height="50" relative="1" as="geometry">
            <mxPoint x="840" y="377" as="sourcePoint" />
            <mxPoint x="1000" y="380" as="targetPoint" />
          </mxGeometry>
        </mxCell>
        <mxCell id="e51Ie-1vtM1IQulRm8Je-49" value="Data Visualisation" style="swimlane;whiteSpace=wrap;html=1;" vertex="1" parent="WIyWlLk6GJQsqaUBKTNV-1">
          <mxGeometry x="1120" y="250" width="470" height="310" as="geometry" />
        </mxCell>
        <mxCell id="e51Ie-1vtM1IQulRm8Je-40" value="Firestore" style="shape=cylinder3;whiteSpace=wrap;html=1;boundedLbl=1;backgroundOutline=1;size=15;" vertex="1" parent="e51Ie-1vtM1IQulRm8Je-49">
          <mxGeometry x="50" y="90" width="90" height="125" as="geometry" />
        </mxCell>
        <mxCell id="e51Ie-1vtM1IQulRm8Je-44" value="Website Front End" style="swimlane;fontStyle=0;childLayout=stackLayout;horizontal=1;startSize=30;horizontalStack=0;resizeParent=1;resizeParentMax=0;resizeLast=0;collapsible=1;marginBottom=0;whiteSpace=wrap;html=1;" vertex="1" parent="e51Ie-1vtM1IQulRm8Je-49">
          <mxGeometry x="260" y="110" width="140" height="90" as="geometry" />
        </mxCell>
        <mxCell id="e51Ie-1vtM1IQulRm8Je-45" value="NodeJs" style="text;strokeColor=none;fillColor=none;align=left;verticalAlign=middle;spacingLeft=4;spacingRight=4;overflow=hidden;points=[[0,0.5],[1,0.5]];portConstraint=eastwest;rotatable=0;whiteSpace=wrap;html=1;" vertex="1" parent="e51Ie-1vtM1IQulRm8Je-44">
          <mxGeometry y="30" width="140" height="30" as="geometry" />
        </mxCell>
        <mxCell id="e51Ie-1vtM1IQulRm8Je-46" value="React" style="text;strokeColor=none;fillColor=none;align=left;verticalAlign=middle;spacingLeft=4;spacingRight=4;overflow=hidden;points=[[0,0.5],[1,0.5]];portConstraint=eastwest;rotatable=0;whiteSpace=wrap;html=1;" vertex="1" parent="e51Ie-1vtM1IQulRm8Je-44">
          <mxGeometry y="60" width="140" height="30" as="geometry" />
        </mxCell>
        <mxCell id="e51Ie-1vtM1IQulRm8Je-50" value="" style="endArrow=classic;startArrow=classic;html=1;rounded=0;exitX=1;exitY=0.5;exitDx=0;exitDy=0;exitPerimeter=0;entryX=0;entryY=0.5;entryDx=0;entryDy=0;dashed=1;" edge="1" parent="e51Ie-1vtM1IQulRm8Je-49" source="e51Ie-1vtM1IQulRm8Je-40" target="e51Ie-1vtM1IQulRm8Je-45">
          <mxGeometry width="50" height="50" relative="1" as="geometry">
            <mxPoint x="-70" y="20" as="sourcePoint" />
            <mxPoint x="-20" y="-30" as="targetPoint" />
          </mxGeometry>
        </mxCell>
        <mxCell id="e51Ie-1vtM1IQulRm8Je-51" value="Data Extraction" style="swimlane;whiteSpace=wrap;html=1;" vertex="1" parent="WIyWlLk6GJQsqaUBKTNV-1">
          <mxGeometry x="10" y="250" width="436" height="370" as="geometry" />
        </mxCell>
        <mxCell id="e51Ie-1vtM1IQulRm8Je-12" value="Twitch Parser" style="swimlane;fontStyle=0;childLayout=stackLayout;horizontal=1;startSize=30;horizontalStack=0;resizeParent=1;resizeParentMax=0;resizeLast=0;collapsible=1;marginBottom=0;whiteSpace=wrap;html=1;" vertex="1" parent="e51Ie-1vtM1IQulRm8Je-51">
          <mxGeometry x="134" y="80" width="140" height="120" as="geometry" />
        </mxCell>
        <mxCell id="e51Ie-1vtM1IQulRm8Je-13" value="GCP Cloud Run" style="text;strokeColor=none;fillColor=none;align=left;verticalAlign=middle;spacingLeft=4;spacingRight=4;overflow=hidden;points=[[0,0.5],[1,0.5]];portConstraint=eastwest;rotatable=0;whiteSpace=wrap;html=1;" vertex="1" parent="e51Ie-1vtM1IQulRm8Je-12">
          <mxGeometry y="30" width="140" height="30" as="geometry" />
        </mxCell>
        <mxCell id="e51Ie-1vtM1IQulRm8Je-14" value="Python" style="text;strokeColor=none;fillColor=none;align=left;verticalAlign=middle;spacingLeft=4;spacingRight=4;overflow=hidden;points=[[0,0.5],[1,0.5]];portConstraint=eastwest;rotatable=0;whiteSpace=wrap;html=1;" vertex="1" parent="e51Ie-1vtM1IQulRm8Je-12">
          <mxGeometry y="60" width="140" height="30" as="geometry" />
        </mxCell>
        <mxCell id="e51Ie-1vtM1IQulRm8Je-15" value="Docker container" style="text;strokeColor=none;fillColor=none;align=left;verticalAlign=middle;spacingLeft=4;spacingRight=4;overflow=hidden;points=[[0,0.5],[1,0.5]];portConstraint=eastwest;rotatable=0;whiteSpace=wrap;html=1;" vertex="1" parent="e51Ie-1vtM1IQulRm8Je-12">
          <mxGeometry y="90" width="140" height="30" as="geometry" />
        </mxCell>
        <mxCell id="e51Ie-1vtM1IQulRm8Je-17" value="Twitch Unofficial&lt;br&gt;API" style="ellipse;whiteSpace=wrap;html=1;aspect=fixed;" vertex="1" parent="e51Ie-1vtM1IQulRm8Je-51">
          <mxGeometry x="240" y="230" width="80" height="80" as="geometry" />
        </mxCell>
        <mxCell id="e51Ie-1vtM1IQulRm8Je-20" value="" style="endArrow=classic;html=1;rounded=0;exitX=0.464;exitY=1.05;exitDx=0;exitDy=0;exitPerimeter=0;entryX=0.5;entryY=0;entryDx=0;entryDy=0;dashed=1;startArrow=classic;startFill=1;" edge="1" parent="e51Ie-1vtM1IQulRm8Je-51" source="e51Ie-1vtM1IQulRm8Je-15" target="e51Ie-1vtM1IQulRm8Je-17">
          <mxGeometry width="50" height="50" relative="1" as="geometry">
            <mxPoint x="-34" y="-70" as="sourcePoint" />
            <mxPoint x="16" y="-120" as="targetPoint" />
          </mxGeometry>
        </mxCell>
        <mxCell id="e51Ie-1vtM1IQulRm8Je-16" value="Twitch Official&lt;br&gt;API" style="ellipse;whiteSpace=wrap;html=1;aspect=fixed;" vertex="1" parent="e51Ie-1vtM1IQulRm8Je-51">
          <mxGeometry x="80" y="230" width="80" height="80" as="geometry" />
        </mxCell>
        <mxCell id="e51Ie-1vtM1IQulRm8Je-19" value="" style="endArrow=classic;html=1;rounded=0;exitX=0.464;exitY=0.983;exitDx=0;exitDy=0;exitPerimeter=0;entryX=0.5;entryY=0;entryDx=0;entryDy=0;dashed=1;startArrow=classic;startFill=1;" edge="1" parent="e51Ie-1vtM1IQulRm8Je-51" source="e51Ie-1vtM1IQulRm8Je-15" target="e51Ie-1vtM1IQulRm8Je-16">
          <mxGeometry width="50" height="50" relative="1" as="geometry">
            <mxPoint x="-34" y="-70" as="sourcePoint" />
            <mxPoint x="16" y="-120" as="targetPoint" />
          </mxGeometry>
        </mxCell>
        <mxCell id="e51Ie-1vtM1IQulRm8Je-55" value="Data Storage &amp;amp; Transform" style="swimlane;whiteSpace=wrap;html=1;" vertex="1" parent="WIyWlLk6GJQsqaUBKTNV-1">
          <mxGeometry x="520" y="250" width="440" height="320" as="geometry" />
        </mxCell>
        <mxCell id="e51Ie-1vtM1IQulRm8Je-34" value="GCP&amp;nbsp;&lt;br&gt;BigQuery&lt;br&gt;(high level data storage)" style="shape=cylinder3;whiteSpace=wrap;html=1;boundedLbl=1;backgroundOutline=1;size=15;" vertex="1" parent="e51Ie-1vtM1IQulRm8Je-55">
          <mxGeometry x="290" y="90" width="90" height="125" as="geometry" />
        </mxCell>
        <mxCell id="e51Ie-1vtM1IQulRm8Je-28" value="GCP&amp;nbsp;&lt;br&gt;Cloud Storage&lt;br&gt;(raw data archive)" style="shape=cylinder3;whiteSpace=wrap;html=1;boundedLbl=1;backgroundOutline=1;size=15;" vertex="1" parent="e51Ie-1vtM1IQulRm8Je-55">
          <mxGeometry x="50" y="90" width="90" height="125" as="geometry" />
        </mxCell>
        <mxCell id="e51Ie-1vtM1IQulRm8Je-35" value="" style="shape=flexArrow;endArrow=classic;html=1;rounded=0;entryX=0;entryY=0.5;entryDx=0;entryDy=0;entryPerimeter=0;exitX=1;exitY=0.5;exitDx=0;exitDy=0;exitPerimeter=0;" edge="1" parent="e51Ie-1vtM1IQulRm8Je-55" source="e51Ie-1vtM1IQulRm8Je-28" target="e51Ie-1vtM1IQulRm8Je-34">
          <mxGeometry width="50" height="50" relative="1" as="geometry">
            <mxPoint x="-120" y="-123" as="sourcePoint" />
            <mxPoint x="50" y="-123" as="targetPoint" />
          </mxGeometry>
        </mxCell>
      </root>
    </mxGraphModel>
  </diagram>
</mxfile>
